# xmcd
#
# Track frame offsets:
#	150
#	13292
#	27107
#	45515
#	59860
#	70675
#	81665
#	92022
#	104892
#	113952
#	125855
#	144080
#	155640
#	163900
#	177355
#	195357
#	206065
#	219522
#	231717
#	244287
#	260282
#	272905
#	285545
#	300000
#	312187
#
# Disc length: 4449
#
# Revision: 3
# Processed by: cddbd v1.5.1PL0 Copyright (c) Steve Scherf et al.
# Submitted via: audiograbber 1.81.03
# Normalized: r2:DSETVAR1
#
DISCID=7d115f19
DTITLE=Various Artist - Country 100 Volume 2
DYEAR=1990
DGENRE=Country
TTITLE0=Ray Stevens - Misty
TTITLE1=Kenny Rogers and Dottie West - What Are We Doin In Love
TTITLE2=Don Williams - I Beleive In You
TTITLE3=Lee Greenwood - God Bless The USA
TTITLE4=Hank Williams - I Cant Help It
TTITLE5=Conway Twitty - Hello Darlin
TTITLE6=Dave Dudley - Six Days on the Road
TTITLE7=Michael Martin Murphy - Whats Forever For
TTITLE8=Johnny Rodriguez - Just Get Up And Close The Door
TTITLE9=Don Williams - I've Got A Winner In You
TTITLE10=Juice Newton - Break It To Me Gently
TTITLE11=Sammy Smith - Help Me Make It Thru The Night
TTITLE12=Roger Miller - Dang Me
TTITLE13=Loretta Lynn - Coal Miners Daughter
TTITLE14=Bobby Goldsboro - Honey
TTITLE15=Mac Davis - You'r My Bestest Freind
TTITLE16=Glen Campbell - Southern Nights
TTITLE17=Roy Clark - The Tip Of My Fingers
TTITLE18=Mell McDaniel - Big Ole Brew
TTITLE19=Billy Jo Spears - Blanket On The Ground
TTITLE20=Johnny Cash - Folsom Prison Blues
TTITLE21=Nat Stuckey - Sweet Thang
TTITLE22=Jeannie C Riley - Harper Valley PTA
TTITLE23=Johnny Cash - I Walk The Line
TTITLE24=Tanya Tucker - Texas (When I Die)
EXTD=
EXTT0=
EXTT1=
EXTT2=
EXTT3=
EXTT4=
EXTT5=
EXTT6=
EXTT7=
EXTT8=
EXTT9=
EXTT10=
EXTT11=
EXTT12=
EXTT13=
EXTT14=
EXTT15=
EXTT16=
EXTT17=
EXTT18=
EXTT19=
EXTT20=
EXTT21=
EXTT22=
EXTT23=
EXTT24=
PLAYORDER=
